<svg version="1.1" xmlns="http://www.w3.org/2000/svg" viewBox="0 0 881 701" width="881" height="701">
  <!-- svg-source:excalidraw -->
  
  <defs>
    <style>
      @font-face {
        font-family: "Virgil";
        src: url("https://excalidraw.com/Virgil.woff2");
      }
      @font-face {
        font-family: "Cascadia";
        src: url("https://excalidraw.com/Cascadia.woff2");
      }
    </style>
  </defs>
  <rect x="0" y="0" width="881" height="701" fill="#ffffff"></rect><g stroke-linecap="round" transform="translate(10 317) rotate(0 430.5 187)"><path d="M0.17 -0.2 C229.63 -2.59, 457.65 -3.21, 860.72 0.48 M-0.33 0.36 C277.17 -3.05, 554.12 -2.65, 861.27 0.37 M860.39 0.51 C859.59 76.75, 858.88 155.42, 860.78 373.21 M860.65 -0.23 C862.8 107.18, 862.36 214.74, 861 374.31 M861.5 374.54 C604.34 373.58, 346.74 372.72, -0.56 374.5 M860.88 374.38 C593.82 370.64, 327.07 370.88, -0.19 374.19 M0.39 374.53 C1.12 256.49, 1.64 138.18, -0.73 0.74 M0.46 373.53 C-1.03 283.39, -1.66 192.59, -0.34 -0.23" stroke="#000000" stroke-width="1" fill="none"></path></g><g stroke-linecap="round" transform="translate(575 408) rotate(0 121.5 102)"><path d="M1.4 -0.9 C81.06 -0.39, 160.09 0.25, 243.07 -1.58 M-0.31 0.64 C61.27 0.11, 122.25 -0.44, 243.3 0.27 M242.21 0.26 C240.79 73.15, 241.73 147.21, 242.93 204 M243.85 0.04 C241.87 73.17, 242.37 145.3, 243.21 203.17 M244.48 204.27 C183.07 206.55, 127.73 206.09, -0.51 205.28 M243.13 203.96 C185.03 202.64, 127.61 202.49, -0.81 204.6 M-0.63 202.87 C-0.02 160.71, 0.32 121.78, 1.36 1.54 M0.84 204.73 C0.41 135.57, 0.09 65.93, -0.51 -0.43" stroke="#000000" stroke-width="1" fill="none"></path></g><g stroke-linecap="round" transform="translate(125 436) rotate(0 80 59.5)"><path d="M94.51 -0.06 C105.71 0.74, 117.86 6.74, 127.08 11.8 C136.3 16.87, 144.3 23.04, 149.85 30.34 C155.4 37.64, 159.6 46.79, 160.36 55.62 C161.12 64.45, 158.85 75.11, 154.42 83.32 C149.99 91.54, 142.49 99.32, 133.78 104.92 C125.07 110.52, 113.5 114.59, 102.16 116.95 C90.83 119.3, 77.07 120.42, 65.75 119.05 C54.42 117.68, 43.4 113.8, 34.21 108.71 C25.02 103.62, 16.25 96.31, 10.61 88.52 C4.98 80.73, 1.21 70.74, 0.4 61.98 C-0.41 53.22, 1.24 43.64, 5.76 35.96 C10.27 28.29, 18.69 21.57, 27.5 15.92 C36.31 10.28, 46.83 4.48, 58.61 2.08 C70.39 -0.31, 90.94 1.26, 98.17 1.58 C105.39 1.9, 102.07 3.18, 101.96 4.01 M117.12 6.96 C127.85 9.92, 137.98 17.18, 144.73 23.81 C151.49 30.44, 155.47 38.58, 157.66 46.76 C159.85 54.94, 160.67 64.5, 157.88 72.88 C155.09 81.27, 148.45 90.31, 140.91 97.08 C133.36 103.85, 122.77 109.95, 112.6 113.53 C102.44 117.1, 91.08 118.85, 79.9 118.53 C68.71 118.2, 56.16 115.58, 45.48 111.57 C34.79 107.56, 23.12 101.14, 15.78 94.46 C8.44 87.78, 3.8 79.79, 1.43 71.5 C-0.94 63.22, -1.04 52.92, 1.54 44.76 C4.11 36.59, 9.26 29.11, 16.89 22.52 C24.52 15.92, 36.44 8.98, 47.33 5.2 C58.22 1.41, 70.64 -0.37, 82.23 -0.18 C93.81 0, 111.32 4.96, 116.85 6.3 C122.39 7.65, 116.46 7.17, 115.46 7.91" stroke="#000000" stroke-width="1" fill="none"></path></g><g transform="translate(300 67) rotate(0 129.5 43.5)" stroke="none"><path fill="#000000" d="M -1.55,0.15 Q -1.55,0.15 -1.80,-2.72 -2.06,-5.61 -1.57,-8.74 -1.09,-11.86 0.00,-14.96 1.11,-18.06 2.45,-21.10 3.80,-24.14 5.90,-26.71 7.99,-29.28 10.05,-31.23 12.11,-33.18 14.75,-35.18 17.38,-37.17 20.26,-38.90 23.14,-40.64 26.40,-42.24 29.66,-43.85 32.54,-44.84 35.42,-45.83 38.40,-46.54 41.38,-47.25 43.54,-47.56 45.70,-47.87 47.80,-48.01 49.89,-48.16 51.35,-48.32 52.80,-48.49 54.60,-48.55 56.39,-48.62 58.53,-48.01 60.66,-47.39 62.76,-46.18 64.86,-44.97 66.09,-44.26 67.32,-43.56 68.49,-42.66 69.67,-41.76 71.01,-40.39 72.35,-39.02 75.25,-40.18 78.14,-41.34 81.91,-42.85 85.69,-44.36 90.20,-46.13 94.72,-47.90 99.82,-49.78 104.93,-51.67 109.19,-52.76 113.44,-53.85 117.82,-54.87 122.21,-55.89 125.51,-56.60 128.82,-57.32 132.32,-57.62 135.83,-57.93 138.75,-58.05 141.67,-58.18 144.70,-57.93 147.74,-57.69 150.81,-57.00 153.89,-56.30 156.65,-55.42 159.40,-54.54 161.75,-53.58 164.10,-52.62 166.32,-51.31 168.53,-50.00 170.87,-48.60 173.21,-47.20 175.14,-45.69 177.06,-44.19 178.71,-43.02 180.35,-41.86 181.53,-40.74 182.71,-39.63 183.37,-38.41 184.03,-37.19 184.35,-36.01 184.67,-34.84 184.79,-33.56 184.90,-32.28 184.25,-30.97 183.60,-29.67 182.33,-28.58 181.06,-27.49 179.38,-26.11 177.69,-24.74 176.99,-23.87 176.30,-23.00 175.71,-22.07 175.13,-21.13 174.36,-21.93 173.58,-22.72 175.36,-22.76 177.15,-22.80 178.81,-22.72 180.48,-22.63 182.35,-23.00 184.22,-23.37 186.76,-23.51 189.31,-23.66 192.39,-23.67 195.48,-23.68 198.50,-23.66 201.53,-23.63 204.54,-23.60 207.55,-23.56 210.97,-22.95 214.39,-22.33 216.69,-21.76 218.99,-21.20 220.94,-20.37 222.90,-19.54 225.09,-18.61 227.28,-17.67 230.32,-15.78 233.37,-13.89 236.31,-12.26 239.26,-10.62 242.34,-8.13 245.43,-5.63 247.62,-3.39 249.81,-1.14 251.12,1.37 252.43,3.90 253.02,5.88 253.61,7.87 253.87,9.91 254.13,11.96 254.24,13.98 254.35,16.00 254.49,17.43 254.63,18.86 254.83,20.42 255.04,21.99 255.51,20.90 255.98,19.82 259.23,18.50 262.47,17.18 266.01,16.33 269.55,15.48 271.94,15.16 274.33,14.84 276.83,14.73 279.32,14.61 281.82,14.58 284.32,14.56 286.36,14.81 288.40,15.06 291.42,16.41 294.43,17.76 296.85,19.22 299.26,20.68 301.74,22.48 304.22,24.27 306.19,26.25 308.17,28.22 309.37,29.99 310.57,31.75 311.43,33.38 312.29,35.02 312.70,37.02 313.11,39.03 313.22,41.33 313.32,43.63 313.36,45.75 313.40,47.87 313.40,50.78 313.40,53.70 313.10,55.89 312.80,58.09 312.06,60.27 311.32,62.45 310.09,64.12 308.86,65.79 307.48,67.31 306.10,68.83 304.30,70.36 302.49,71.89 300.90,73.35 299.32,74.82 297.39,76.09 295.46,77.36 294.13,78.26 292.79,79.16 291.31,79.89 289.83,80.62 291.03,83.30 292.22,85.98 292.95,87.48 293.69,88.98 293.99,91.63 294.29,94.28 294.36,96.79 294.44,99.31 293.86,101.99 293.28,104.66 291.82,107.87 290.37,111.08 287.67,114.53 284.96,117.98 283.22,119.73 281.47,121.48 278.63,123.42 275.80,125.37 272.77,126.52 269.74,127.67 266.21,128.99 262.68,130.30 259.39,131.17 256.10,132.03 254.11,132.43 252.13,132.84 249.56,133.27 247.00,133.70 243.83,133.89 240.65,134.07 234.67,133.86 228.69,133.65 224.42,133.26 220.14,132.88 213.44,132.14 206.74,131.40 202.77,131.09 198.79,130.78 196.82,130.68 194.84,130.57 193.71,130.64 192.59,130.71 192.39,130.72 192.20,130.74 191.99,130.70 191.79,130.67 191.60,130.58 191.41,130.50 191.25,130.38 191.09,130.25 190.96,130.09 190.83,129.93 190.74,129.74 190.66,129.56 190.62,129.35 190.58,129.15 190.59,128.95 190.60,128.74 190.66,128.54 190.72,128.35 190.82,128.17 190.93,127.99 191.07,127.84 191.21,127.70 191.39,127.59 191.56,127.48 191.76,127.42 191.96,127.35 192.16,127.34 192.37,127.33 193.25,127.96 194.13,128.60 194.56,130.19 194.99,131.79 194.77,133.71 194.54,135.63 193.61,136.73 192.68,137.84 191.11,138.98 189.54,140.13 187.88,140.99 186.22,141.86 184.38,142.69 182.54,143.52 180.37,143.94 178.20,144.36 175.53,144.45 172.86,144.54 170.02,144.55 167.18,144.56 163.15,144.82 159.13,145.09 155.64,145.19 152.16,145.29 149.24,145.33 146.32,145.36 143.06,145.36 139.81,145.37 136.70,145.37 133.59,145.36 131.12,145.36 128.65,145.35 126.74,145.40 124.82,145.44 122.86,145.46 120.90,145.48 118.91,145.49 116.93,145.50 114.07,145.47 111.22,145.45 108.49,145.14 105.76,144.83 102.55,144.10 99.34,143.38 96.36,143.09 93.39,142.79 90.68,142.66 87.98,142.53 85.32,142.18 82.67,141.83 80.37,141.39 78.08,140.94 76.04,140.77 74.00,140.59 71.89,140.23 69.78,139.86 68.37,139.82 66.96,139.78 65.25,139.76 63.54,139.74 61.54,139.42 59.53,139.10 58.46,139.07 57.39,139.04 55.44,138.66 53.49,138.28 52.16,138.21 50.84,138.15 49.17,138.09 47.49,138.04 46.19,138.08 44.90,138.11 43.77,138.17 42.65,138.22 40.58,138.33 38.50,138.43 36.14,138.17 33.77,137.92 31.78,137.83 29.79,137.73 27.77,137.74 25.75,137.75 24.33,137.43 22.90,137.11 21.38,137.02 19.87,136.94 17.51,136.59 15.15,136.24 13.92,136.14 12.68,136.05 10.67,135.45 8.66,134.84 7.31,134.61 5.96,134.38 4.87,133.84 3.78,133.30 2.84,132.75 1.91,132.19 0.48,130.58 -0.93,128.96 -2.26,127.58 -3.59,126.20 -5.06,125.10 -6.53,124.01 -7.11,123.03 -7.69,122.05 -8.33,120.01 -8.97,117.96 -9.66,116.40 -10.35,114.84 -10.70,112.40 -11.04,109.97 -11.03,108.53 -11.02,107.09 -10.54,104.85 -10.07,102.62 -9.96,101.48 -9.85,100.33 -8.35,97.73 -6.84,95.12 -5.59,93.70 -4.34,92.27 -3.28,91.14 -2.22,90.02 -0.45,88.68 1.30,87.35 3.22,85.99 5.13,84.62 6.45,83.47 7.76,82.32 8.96,81.41 10.17,80.50 11.20,80.22 12.24,79.94 12.54,81.20 12.83,82.46 11.30,82.59 9.76,82.71 7.74,83.19 5.72,83.67 4.34,83.72 2.96,83.78 0.23,83.31 -2.49,82.85 -4.30,82.38 -6.11,81.90 -8.09,81.01 -10.07,80.11 -12.34,78.79 -14.62,77.46 -17.55,75.72 -20.49,73.99 -22.85,72.66 -25.21,71.34 -27.67,69.88 -30.13,68.43 -32.55,67.25 -34.96,66.08 -37.23,64.66 -39.49,63.23 -41.60,61.76 -43.71,60.28 -45.25,59.09 -46.79,57.89 -47.90,56.41 -49.01,54.92 -49.98,53.87 -50.95,52.82 -51.79,50.98 -52.63,49.13 -53.23,47.19 -53.82,45.25 -54.08,43.16 -54.35,41.08 -54.40,38.73 -54.45,36.38 -53.90,34.30 -53.35,32.22 -52.15,30.15 -50.95,28.08 -50.28,26.66 -49.60,25.25 -48.71,23.73 -47.82,22.21 -46.46,20.82 -45.10,19.44 -44.03,18.33 -42.97,17.22 -41.57,16.10 -40.16,14.98 -38.98,14.15 -37.80,13.32 -35.88,12.22 -33.96,11.11 -32.50,10.81 -31.05,10.51 -29.51,10.40 -27.97,10.28 -28.32,11.67 -28.67,13.06 -29.94,11.68 -31.21,10.29 -31.87,9.14 -32.53,7.99 -33.14,6.49 -33.74,5.00 -34.06,3.61 -34.38,2.23 -34.49,0.71 -34.59,-0.80 -34.67,-3.05 -34.74,-5.30 -34.03,-6.98 -33.32,-8.66 -32.82,-9.86 -32.31,-11.07 -30.97,-12.76 -29.63,-14.44 -28.41,-15.53 -27.20,-16.61 -26.21,-17.54 -25.23,-18.46 -23.67,-19.33 -22.10,-20.20 -20.97,-20.80 -19.84,-21.41 -17.56,-22.34 -15.27,-23.27 -13.95,-23.87 -12.63,-24.47 -11.28,-24.68 -9.93,-24.88 -8.85,-24.95 -7.77,-25.02 -6.25,-25.09 -4.74,-25.16 -3.24,-25.21 -1.73,-25.26 -0.63,-25.66 0.47,-26.06 3.21,-26.22 5.94,-26.38 6.49,-26.30 7.03,-26.22 7.51,-25.97 8.00,-25.72 8.38,-25.33 8.76,-24.93 9.00,-24.44 9.24,-23.95 9.31,-23.41 9.37,-22.86 9.26,-22.33 9.15,-21.79 8.88,-21.32 8.60,-20.84 8.19,-20.48 7.78,-20.12 7.28,-19.91 6.77,-19.70 6.23,-19.67 5.68,-19.63 5.15,-19.77 4.62,-19.91 4.16,-20.21 3.71,-20.51 3.37,-20.94 3.03,-21.37 2.85,-21.88 2.67,-22.40 2.66,-22.95 2.65,-23.49 2.82,-24.01 2.98,-24.53 3.31,-24.97 3.63,-25.41 4.08,-25.73 4.53,-26.04 5.05,-26.20 5.58,-26.35 6.13,-26.33 6.67,-26.31 7.18,-26.11 7.69,-25.92 8.12,-25.57 8.54,-25.22 8.83,-24.76 9.12,-24.29 9.24,-23.76 9.37,-23.23 9.32,-22.68 9.27,-22.14 9.04,-21.64 8.82,-21.14 8.45,-20.74 8.08,-20.33 7.60,-20.07 7.12,-19.81 6.58,-19.71 6.04,-19.61 6.05,-19.61 6.05,-19.61 3.96,-19.65 1.87,-19.68 0.67,-19.22 -0.52,-18.76 -2.12,-18.78 -3.73,-18.80 -5.23,-18.85 -6.72,-18.91 -8.16,-18.97 -9.60,-19.02 -10.79,-18.99 -11.98,-18.96 -13.10,-18.50 -14.23,-18.05 -15.85,-17.45 -17.48,-16.86 -18.60,-16.30 -19.71,-15.74 -20.74,-15.22 -21.77,-14.71 -22.81,-13.72 -23.86,-12.73 -24.72,-12.03 -25.58,-11.33 -26.41,-10.16 -27.24,-8.99 -28.22,-7.03 -29.20,-5.06 -29.15,-3.14 -29.10,-1.21 -28.86,0.83 -28.62,2.88 -28.13,4.02 -27.63,5.16 -27.06,6.14 -26.49,7.13 -25.69,8.26 -24.89,9.39 -24.46,10.59 -24.03,11.78 -25.03,13.61 -26.03,15.43 -27.58,15.55 -29.14,15.67 -30.92,15.65 -32.70,15.63 -34.13,16.22 -35.57,16.82 -36.66,17.44 -37.76,18.07 -39.02,19.02 -40.28,19.97 -41.42,21.02 -42.57,22.08 -43.69,23.08 -44.81,24.09 -45.71,25.47 -46.61,26.86 -47.43,28.23 -48.25,29.60 -49.23,31.38 -50.21,33.16 -50.72,34.72 -51.23,36.29 -51.07,38.46 -50.91,40.64 -50.68,42.42 -50.44,44.20 -49.87,45.96 -49.30,47.72 -48.75,49.15 -48.19,50.58 -47.24,51.85 -46.29,53.11 -45.59,54.36 -44.88,55.61 -43.50,56.79 -42.11,57.97 -40.04,59.37 -37.98,60.78 -35.83,62.08 -33.69,63.38 -31.14,64.55 -28.58,65.72 -26.12,67.07 -23.66,68.42 -21.21,69.65 -18.76,70.88 -15.77,72.45 -12.79,74.02 -10.62,75.05 -8.44,76.08 -6.71,76.68 -4.98,77.27 -3.48,77.60 -1.97,77.93 0.37,77.99 2.73,78.06 4.47,77.98 6.22,77.90 8.02,77.60 9.82,77.30 10.98,77.40 12.15,77.51 13.72,78.12 15.29,78.73 15.61,80.03 15.93,81.32 14.18,82.57 12.43,83.82 11.33,84.49 10.24,85.16 8.85,86.38 7.46,87.59 5.72,89.08 3.99,90.57 2.57,91.89 1.16,93.22 0.14,94.28 -0.86,95.35 -1.78,96.38 -2.69,97.41 -3.59,99.22 -4.48,101.04 -4.60,102.19 -4.72,103.34 -4.80,105.15 -4.87,106.95 -4.73,109.17 -4.58,111.39 -4.07,112.92 -3.56,114.45 -3.01,116.10 -2.46,117.75 -1.44,119.27 -0.43,120.80 0.87,122.08 2.17,123.36 3.29,124.32 4.42,125.29 5.13,126.25 5.84,127.21 7.46,128.08 9.08,128.95 10.40,129.56 11.72,130.16 13.18,130.22 14.65,130.29 16.52,130.70 18.39,131.12 20.13,131.25 21.86,131.39 23.85,131.83 25.84,132.26 27.92,132.34 30.01,132.41 31.40,132.47 32.80,132.53 34.66,133.01 36.52,133.48 38.54,133.58 40.57,133.67 41.63,133.74 42.69,133.80 43.84,133.88 44.98,133.96 46.31,134.05 47.63,134.13 49.44,134.21 51.24,134.28 52.69,134.50 54.13,134.73 55.98,135.04 57.84,135.35 58.96,135.59 60.07,135.83 61.87,136.13 63.67,136.44 65.48,136.55 67.30,136.67 68.78,136.94 70.26,137.21 72.24,137.57 74.23,137.94 76.40,138.13 78.58,138.32 80.80,138.75 83.01,139.17 85.56,139.50 88.10,139.83 90.88,139.95 93.65,140.07 96.79,140.37 99.94,140.67 103.00,141.34 106.07,142.01 108.64,142.28 111.22,142.54 114.07,142.52 116.93,142.49 118.91,142.50 120.90,142.51 122.86,142.53 124.82,142.55 126.73,142.58 128.64,142.62 131.11,142.61 133.58,142.60 136.68,142.57 139.78,142.55 143.02,142.50 146.26,142.46 149.15,142.38 152.04,142.30 155.46,142.13 158.88,141.96 162.99,141.60 167.10,141.23 169.86,141.10 172.63,140.96 175.03,140.73 177.43,140.50 179.06,140.15 180.70,139.80 182.42,138.83 184.13,137.86 185.43,137.18 186.72,136.51 188.75,134.81 190.78,133.11 191.49,131.92 192.20,130.74 191.99,130.70 191.79,130.67 191.60,130.58 191.41,130.50 191.25,130.38 191.09,130.25 190.96,130.09 190.83,129.93 190.74,129.74 190.66,129.56 190.62,129.35 190.58,129.15 190.59,128.95 190.60,128.74 190.66,128.54 190.72,128.35 190.82,128.17 190.93,127.99 191.07,127.84 191.21,127.70 191.39,127.59 191.56,127.48 191.76,127.42 191.95,127.35 192.16,127.34 192.37,127.33 192.56,127.39 192.75,127.45 193.88,127.63 195.02,127.81 197.01,127.97 199.00,128.13 203.01,128.45 207.03,128.76 213.70,129.49 220.38,130.22 224.58,130.59 228.79,130.96 234.64,131.16 240.49,131.36 243.51,131.17 246.53,130.99 249.07,130.54 251.61,130.09 253.52,129.77 255.42,129.44 258.58,128.61 261.73,127.78 265.26,126.45 268.78,125.12 271.52,124.10 274.25,123.09 276.87,121.29 279.48,119.50 281.09,117.85 282.70,116.21 285.19,113.03 287.67,109.85 288.96,106.93 290.25,104.01 290.71,101.73 291.17,99.46 290.99,97.09 290.81,94.72 290.50,92.64 290.20,90.56 289.51,89.04 288.82,87.53 287.68,85.24 286.54,82.95 286.42,81.40 286.31,79.85 287.36,78.68 288.41,77.51 289.80,76.99 291.19,76.46 292.56,75.76 293.93,75.05 295.66,73.90 297.39,72.75 299.00,71.23 300.60,69.70 302.25,68.25 303.89,66.80 305.22,65.37 306.55,63.93 307.63,62.72 308.72,61.51 309.36,59.61 310.01,57.71 310.26,55.71 310.52,53.72 310.47,50.83 310.42,47.95 310.34,45.88 310.26,43.82 310.10,41.70 309.93,39.59 309.70,37.96 309.48,36.33 308.83,34.82 308.18,33.31 307.20,31.74 306.21,30.18 304.39,28.37 302.57,26.56 300.17,24.87 297.78,23.17 295.49,21.84 293.21,20.50 290.58,19.33 287.95,18.17 286.17,17.90 284.40,17.64 281.97,17.75 279.54,17.86 277.22,18.06 274.90,18.27 272.71,18.71 270.53,19.15 267.37,20.09 264.20,21.03 261.15,22.57 258.09,24.10 255.78,24.84 253.46,25.58 252.20,23.80 250.93,22.03 251.09,20.49 251.25,18.95 251.31,17.55 251.37,16.14 251.29,14.21 251.22,12.28 251.05,10.44 250.88,8.60 250.45,6.85 250.03,5.10 248.95,2.90 247.87,0.70 245.79,-1.40 243.72,-3.52 240.82,-5.86 237.92,-8.21 234.91,-9.86 231.89,-11.50 229.03,-13.26 226.17,-15.02 223.94,-15.92 221.70,-16.82 220.01,-17.59 218.32,-18.35 216.10,-18.85 213.88,-19.34 210.72,-19.86 207.56,-20.37 204.57,-20.30 201.58,-20.23 198.59,-20.12 195.60,-20.00 192.66,-19.81 189.72,-19.61 187.55,-19.28 185.39,-18.94 182.94,-18.16 180.50,-17.39 178.77,-17.32 177.05,-17.26 175.71,-17.28 174.37,-17.29 172.21,-18.19 170.05,-19.08 169.85,-20.59 169.64,-22.11 170.27,-23.03 170.91,-23.94 171.71,-25.10 172.52,-26.26 173.73,-27.60 174.95,-28.93 176.55,-30.02 178.16,-31.10 179.47,-32.63 180.79,-34.15 180.57,-35.86 180.35,-37.56 179.55,-38.61 178.75,-39.66 177.09,-40.89 175.43,-42.11 173.64,-43.52 171.85,-44.93 169.51,-46.32 167.17,-47.72 165.13,-48.94 163.09,-50.15 160.84,-51.07 158.59,-51.99 155.94,-52.83 153.29,-53.68 150.41,-54.33 147.52,-54.98 144.66,-55.20 141.79,-55.42 138.93,-55.28 136.08,-55.14 132.76,-54.82 129.44,-54.51 126.17,-53.76 122.90,-53.01 118.57,-51.93 114.24,-50.86 110.17,-49.74 106.09,-48.61 101.07,-46.63 96.05,-44.65 91.63,-42.75 87.21,-40.84 83.47,-39.11 79.74,-37.38 76.54,-36.07 73.35,-34.76 71.03,-35.71 68.72,-36.66 67.96,-37.77 67.21,-38.88 66.29,-39.77 65.36,-40.67 64.35,-41.47 63.34,-42.28 61.53,-43.27 59.71,-44.27 58.05,-44.79 56.39,-45.31 54.65,-45.33 52.92,-45.34 51.49,-45.40 50.06,-45.46 48.06,-45.35 46.07,-45.25 44.03,-44.97 41.99,-44.68 39.14,-44.00 36.28,-43.32 33.56,-42.39 30.83,-41.47 27.67,-39.91 24.51,-38.35 21.76,-36.69 19.00,-35.04 16.48,-33.13 13.97,-31.22 12.03,-29.38 10.10,-27.55 8.21,-25.28 6.32,-23.01 5.04,-20.06 3.76,-17.12 2.76,-14.27 1.75,-11.41 1.33,-8.65 0.91,-5.88 1.23,-3.02 1.55,-0.15 1.55,0.03 1.54,0.22 1.49,0.40 1.44,0.58 1.35,0.74 1.26,0.91 1.13,1.05 1.01,1.19 0.85,1.29 0.69,1.39 0.51,1.46 0.34,1.52 0.15,1.54 -0.03,1.56 -0.21,1.53 -0.40,1.50 -0.58,1.43 -0.75,1.36 -0.90,1.25 -1.06,1.14 -1.18,1.00 -1.30,0.85 -1.38,0.69 -1.47,0.52 -1.51,0.33 -1.55,0.15 -1.55,0.15 L -1.55,0.15 Z"></path></g><g stroke-linecap="round"><g transform="translate(480 212) rotate(0 100.12728475937627 97.85261984845623)"><path d="M0.11 1.02 C33.49 33.35, 165.98 161.53, 199.23 193.77 M-1.29 0.52 C32.56 33.05, 168.21 163.21, 201.54 195.19" stroke="#000000" stroke-width="1" fill="none"></path></g><g transform="translate(480 212) rotate(0 100.12728475937627 97.85261984845623)"><path d="M29.21 11.98 C21.22 10.03, 16.46 8.86, 2.02 2.54 M28.43 13.46 C20.15 10.92, 13.5 7.22, -0.07 0.81" stroke="#000000" stroke-width="1" fill="none"></path></g><g transform="translate(480 212) rotate(0 100.12728475937627 97.85261984845623)"><path d="M14.94 26.72 C10.06 21.57, 8.39 17.2, 2.02 2.54 M14.16 28.21 C9.72 21.57, 6.91 13.9, -0.07 0.81" stroke="#000000" stroke-width="1" fill="none"></path></g><g transform="translate(480 212) rotate(0 100.12728475937627 97.85261984845623)"><path d="M175.8 181.79 C179.64 185.07, 186.75 189.16, 203.44 196.7 M175.02 183.28 C181.49 186.79, 189.59 189.64, 201.35 194.98" stroke="#000000" stroke-width="1" fill="none"></path></g><g transform="translate(480 212) rotate(0 100.12728475937627 97.85261984845623)"><path d="M190.01 166.99 C190.74 173.48, 194.78 180.78, 203.44 196.7 M189.23 168.47 C191.88 176.1, 196.16 182.92, 201.35 194.98" stroke="#000000" stroke-width="1" fill="none"></path></g></g><g stroke-linecap="round"><g transform="translate(571 498) rotate(0 -140.44541223636827 -3.065573515370488)"><path d="M0.11 0.04 C-46.46 -1.15, -233.56 -5.17, -280.38 -6.17 M-1.29 -0.99 C-47.87 -2.16, -234.3 -4.55, -281 -5.25" stroke="#000000" stroke-width="1" fill="none"></path></g><g transform="translate(571 498) rotate(0 -140.44541223636827 -3.065573515370488)"><path d="M-28.23 10.7 C-24.08 7.83, -17.52 6.79, -0.56 0.22 M-28.96 9.95 C-21.96 6.48, -12.93 5.68, 1.09 0.56" stroke="#000000" stroke-width="1" fill="none"></path></g><g transform="translate(571 498) rotate(0 -140.44541223636827 -3.065573515370488)"><path d="M-27.78 -9.82 C-23.56 -8.18, -17.1 -4.71, -0.56 0.22 M-28.5 -10.57 C-21.65 -8.74, -12.74 -4.26, 1.09 0.56" stroke="#000000" stroke-width="1" fill="none"></path></g><g transform="translate(571 498) rotate(0 -140.44541223636827 -3.065573515370488)"><path d="M-252.61 -14.08 C-260.77 -12.61, -266.68 -9.37, -281.67 -5.07 M-253.33 -14.83 C-260.99 -13.71, -266.6 -9.49, -280.03 -4.73" stroke="#000000" stroke-width="1" fill="none"></path></g><g transform="translate(571 498) rotate(0 -140.44541223636827 -3.065573515370488)"><path d="M-252.89 6.44 C-261.16 3.4, -267 2.13, -281.67 -5.07 M-253.62 5.69 C-261.18 1.52, -266.71 0.45, -280.03 -4.73" stroke="#000000" stroke-width="1" fill="none"></path></g></g><g transform="translate(401 103) rotate(0 42 12.5)"><text x="0" y="18" font-family="Virgil, Segoe UI Emoji" font-size="20px" fill="#000000" text-anchor="start" style="white-space: pre;" direction="ltr">Internet</text></g><g transform="translate(644 485) rotate(0 60 25)"><text x="0" y="18" font-family="Virgil, Segoe UI Emoji" font-size="20px" fill="#000000" text-anchor="start" style="white-space: pre;" direction="ltr">Linux Server</text><text x="0" y="43" font-family="Virgil, Segoe UI Emoji" font-size="20px" fill="#000000" text-anchor="start" style="white-space: pre;" direction="ltr">    in VM</text></g><g transform="translate(130 470.5) rotate(0 75 25)"><text x="75" y="18" font-family="Virgil, Segoe UI Emoji" font-size="20px" fill="#000000" text-anchor="middle" style="white-space: pre;" direction="ltr">Terminal w/ </text><text x="75" y="43" font-family="Virgil, Segoe UI Emoji" font-size="20px" fill="#000000" text-anchor="middle" style="white-space: pre;" direction="ltr">SSH</text></g><g transform="translate(58 342) rotate(0 64.5 12.5)"><text x="0" y="18" font-family="Virgil, Segoe UI Emoji" font-size="20px" fill="#000000" text-anchor="start" style="white-space: pre;" direction="ltr">Windows Host</text></g></svg>